<?xml version="1.0" encoding="utf-8"?>
<!-- Generator: Adobe Illustrator 26.0.2, SVG Export Plug-In . SVG Version: 6.00 Build 0)  -->
<svg version="1.1" id="Layer_1" xmlns="http://www.w3.org/2000/svg" xmlns:xlink="http://www.w3.org/1999/xlink" x="0px" y="0px"
	 viewBox="0 0 3017.5 810" style="enable-background:new 0 0 3017.5 810;" xml:space="preserve">
<style type="text/css">
	.st0{fill:#007BFF;}
	.st1{fill:#FFFFFF;}
</style>
<g>
	<circle class="st0" cx="2771.6" cy="228.1" r="54.8"/>
	<path d="M1995,461.3c21.2,1.5,39.6-14.5,41.2-35.8c0.1-1.2,0.1-2.6,0.1-3.9c-0.3-7.4-1.2-14.9-2.7-22.2
		c-13-69.4-72.3-120.5-142.8-123.3c-80.3,0-147.4,73.8-147.4,164.4s66,164.5,147.3,164.5c43.1,1.7,84.9-15.7,113.9-47.6
		c11.9-13,10.9-33.1-2.1-45c-1-0.9-1.9-1.7-2.9-2.4c-13-8.1-29.9-6.4-40.9,4.2c-18.1,18-42.4,28.3-68,29.1
		c-44.2-3.5-79.6-38.1-84-82.4h187.1L1995,461.3z M1890.4,338c38.9,2.6,71.6,30.4,80.3,68.5h-160.4
		C1818.9,368.3,1851.4,340.5,1890.4,338z"/>
	<path d="M1746.6,308c0-15.4-11.4-28.5-26.7-30.4c-41.3-6.9-83.3,8.4-110.4,40.4v-4c0-17.1-13.8-30.9-30.9-30.9
		s-30.9,13.8-30.9,30.9v253c-0.4,16.6,12.3,30.7,28.9,32.1c16.9,1.2,31.7-11.6,32.8-28.5c0.1-1.2,0.1-2.4,0-3.6V437.2
		c-2.7-51.8,37-95.9,88.8-98.7c4.6-0.3,9.3-0.2,13.9,0.3h6.2C1734.3,337.4,1746.6,324.1,1746.6,308z"/>
	<path class="st0" d="M1472.2,461.3c21.2,1.5,39.6-14.5,41.2-35.8c0.1-1.2,0.1-2.6,0.1-3.9c-0.3-7.4-1.2-14.9-2.7-22.2
		c-13-69.4-72.3-120.5-142.8-123.3c-80.3,0-147.4,73.8-147.4,164.4s66,164.5,147.3,164.5c43.1,1.7,84.9-15.7,113.9-47.6
		c11.9-13,10.9-33.1-2.1-45c-1-0.9-1.9-1.7-2.9-2.4c-13-8.1-29.9-6.4-40.9,4.2c-18.1,18-42.4,28.3-68,29.1
		c-44.2-3.5-79.6-38.1-84-82.4H1471L1472.2,461.3z M1367.6,338c38.9,2.6,71.6,30.4,80.3,68.5h-160.4
		C1296.1,368.3,1328.6,340.5,1367.6,338z"/>
	<path class="st0" d="M1223.8,308c0-15.4-11.4-28.5-26.7-30.4c-41.3-6.9-83.3,8.4-110.4,40.4v-4c0-17.1-13.8-30.9-30.9-30.9
		s-30.9,13.8-30.9,30.9v253c-0.4,16.6,12.3,30.7,28.9,32.1c16.9,1.2,31.7-11.6,32.8-28.5c0.1-1.2,0.1-2.4,0-3.6V437.2
		c-2.7-51.8,37-95.9,88.8-98.7c4.6-0.3,9.3-0.2,13.9,0.3h6.2C1211.5,337.4,1223.8,324.1,1223.8,308z"/>
	<path d="M2802.4,341.2c0-17.1-13.8-30.9-30.9-30.9c-17.1,0-30.9,13.8-30.9,30.9l0,0v225.7c0,17.1,13.8,30.9,30.9,30.9
		c17.1,0,30.9-13.8,30.9-30.9V341.2z"/>
	<path d="M2346.4,169.7c0-17-13.8-30.8-30.8-30.8l0,0l0,0c-17,0-30.8,13.8-30.8,30.8v138c-20.8-21-49.4-32.4-78.9-31.6
		c-80.3,0-147.4,73.8-147.4,164.4S2124.6,605,2205.9,605c30,0.9,59-10.6,80.3-31.9c4.8,16.3,21.9,25.6,38.2,20.8
		c12.3-3.6,21.1-14.4,21.9-27.3L2346.4,169.7L2346.4,169.7z M2205.7,544.1c-47.3,0-85.8-46-85.8-102.9s38.2-102.9,85.8-102.9
		s85.8,46,85.8,102.9s-38.2,102.4-85.6,102.4L2205.7,544.1z"/>
	<path d="M2668.6,169.7c0-17-13.8-30.8-30.8-30.8l0,0c-17,0-30.8,13.8-30.8,30.8l0,0v138c-20.8-21-49.4-32.4-78.9-31.6
		c-80.3,0-147.4,73.8-147.4,164.4S2446.8,605,2528.1,605c30,0.9,59-10.6,80.3-31.9c4.8,16.3,21.9,25.6,38.2,20.8
		c12.3-3.6,21.1-14.4,21.9-27.3L2668.6,169.7L2668.6,169.7z M2528,544.1c-47.3,0-85.8-46-85.8-102.9s38.2-102.9,85.8-102.9
		s85.8,46,85.8,102.9s-38.2,102.4-85.6,102.4L2528,544.1z"/>
	<path d="M2962.5,566.8V338h26.7c14.8,0.9,27.4-10.4,28.3-25.1c0-0.5,0.1-1.1,0.1-1.7c1.3-14.7-9.6-27.7-24.2-29
		c-0.8-0.1-1.7-0.1-2.5-0.1h-28.3v-42.5c0.2-16.5-12.4-30.4-28.9-31.9c-16.9-1.2-31.6,11.6-32.8,28.5c-0.1,0.7-0.1,1.5-0.1,2.2v44.4
		H2874c-14.8-0.9-27.4,10.4-28.3,25.1c0,0.5-0.1,1.1-0.1,1.7c-1.3,14.7,9.6,27.7,24.2,29c0.8,0.1,1.7,0.1,2.5,0.1h26.7v228.2
		c0,17,13.8,30.8,30.8,30.8l0,0l0,0c17,1.1,31.5-11.9,32.6-28.9C2962.5,568.2,2962.5,567.5,2962.5,566.8z"/>
</g>
<g>
	<g>
		<circle class="st0" cx="-944.2" cy="405.6" r="402.3"/>
	</g>
	<path class="st1" d="M-675.9,416.6c-1.2-32.4-28.4-57.7-60.9-56.6c-14.4,0.5-28.1,6.4-38.5,16.3c-38.8-26.5-94.3-45.4-143.1-50.5
		l25.9-129.3l86.1,18.1c2.4,22.1,22.2,38.1,44.3,35.7s38.1-22.2,35.7-44.3c-2.4-22.1-22.2-38.1-44.3-35.7
		c-12.7,1.3-24.1,8.7-30.4,19.7l-98.6-19.7c-6.7-1.5-13.4,2.7-14.9,9.5c0,0.1,0,0.1,0,0.2l-29.6,143.7L-973.8,180c0-0.1,0-0.1,0-0.2
		c-1.5-6.8-8.2-11-14.9-9.5l-98.6,19.7c-6.3-11-17.7-18.4-30.4-19.7c-22.1-2.4-41.9,13.6-44.3,35.7s13.6,41.9,35.7,44.3
		c22.1,2.4,41.9-13.6,44.3-35.7l86.1-18.1l25.8,129.2c-48.6,4.7-103.6,21.7-142.8,48.2c-23.6-22.2-60.8-21.1-83,2.6
		c-22.2,23.6-21.1,60.8,2.6,83c4.6,4.3,9.9,8,15.8,10.6c-0.4,5.9-0.4,11.8,0,17.7c0,90.1,105,163.4,234.5,163.4
		s234.6-73.2,234.6-163.4c0.4-5.9,0.4-11.8,0-17.7C-688.2,460-675.5,439.2-675.9,416.6z M-1077.6,456.9c0-22.2,18.1-40.3,40.3-40.3
		c22.2,0,40.3,18.1,40.3,40.3c0,22.2-18.1,40.3-40.3,40.3C-1059.6,497-1077.6,479.1-1077.6,456.9z M-845.3,567.5
		c-28.5,21.4-59,31-99,31s-70.5-9.6-99-31c-3.8-4.6-3.1-11.5,1.5-15.3c4-3.3,9.7-3.3,13.8,0c24.2,17.7,48.7,25.3,83.7,25.3
		s59.5-7.6,83.7-25.3c4.1-3.3,9.8-3.3,13.8,0C-842.2,556-841.5,562.9-845.3,567.5z M-851.1,497.2c-22.3-0.2-40.3-18.1-40.3-40.3
		s18.1-40.3,40.3-40.3s40.3,18.1,40.3,40.3S-828.9,497.2-851.1,497.2z"/>
</g>
<g>
	<g>
		<circle class="st0" cx="406.6" cy="405.6" r="402.3"/>
	</g>
	<path class="st1" d="M674.9,416.6c-1.2-32.4-28.4-57.7-60.9-56.6c-14.4,0.5-28.1,6.4-38.5,16.3c-38.8-26.5-94.3-45.4-143.1-50.5
		l25.9-129.3l86.1,18.1c2.4,22.1,22.2,38.1,44.3,35.7c22.1-2.4,38.1-22.2,35.7-44.3c-2.4-22.1-22.2-38.1-44.3-35.7
		c-12.7,1.3-24.1,8.7-30.4,19.7l-98.6-19.7c-6.7-1.5-13.4,2.7-14.9,9.5c0,0.1,0,0.1,0,0.2l-29.6,143.7L377,180c0-0.1,0-0.1,0-0.2
		c-1.5-6.8-8.2-11-14.9-9.5L263.5,190c-6.3-11-17.7-18.4-30.4-19.7c-22.1-2.4-41.9,13.6-44.3,35.7c-2.4,22.1,13.6,41.9,35.7,44.3
		c22.1,2.4,41.9-13.6,44.3-35.7l86.1-18.1l25.8,129.2c-48.6,4.7-103.6,21.7-142.8,48.2c-23.6-22.2-60.8-21.1-83,2.6
		c-22.2,23.6-21.1,60.8,2.6,83c4.6,4.3,9.9,8,15.8,10.6c-0.4,5.9-0.4,11.8,0,17.7c0,90.1,105,163.4,234.5,163.4
		S642.4,578,642.4,487.8c0.4-5.9,0.4-11.8,0-17.7C662.6,460,675.3,439.2,674.9,416.6z M278.2,456.9c0-12.1,4.7-23.4,13.3-32
		c0.9-0.9,2.2-1.5,3.5-1.5s2.6,0.5,3.5,1.5l56.9,56.9c0.9,0.9,1.5,2.2,1.5,3.5c0,1.3-0.5,2.6-1.5,3.5c-8.6,8.6-19.9,13.3-32.1,13.3
		c-12.1-0.1-23.5-4.9-32-13.4C282.9,480.3,278.2,469,278.2,456.9z M505.5,567.5c-28.5,21.4-59,31-99,31s-70.5-9.6-99-31
		c-3.8-4.6-3.1-11.5,1.5-15.3c4-3.3,9.7-3.3,13.8,0c24.2,17.7,48.7,25.3,83.7,25.3s59.5-7.6,83.7-25.3c4.1-3.3,9.8-3.3,13.8,0
		C508.6,556,509.3,562.9,505.5,567.5z M489.6,502.2c-12.1-0.1-23.4-4.8-31.9-13.3c-0.9-0.9-1.5-2.2-1.5-3.5c0-1.3,0.5-2.6,1.5-3.5
		l56.9-56.9c1-1,2.3-1.5,3.5-1.5c1.3,0,2.6,0.5,3.5,1.5c8.6,8.6,13.3,19.9,13.3,32C535,481.9,514.7,502.2,489.6,502.2z"/>
</g>
</svg>
